# xmcd CD database file
#
# Track frame offsets:
#	150
#	23562
#	50620
#	74412
#	94280
#	119380
#	151360
#	177645
#	191795
#	217100
#
# Disc length: 3195 seconds
#
# Revision: 0
# Processed by: cddbd v1.5PL3 Copyright (c) Steve Scherf et al.
# Submitted via: CDex 1.51
#
DISCID=960c790a
DTITLE=Sweetrain - The Snow Tree
DYEAR=1900
DGENRE=New Age
TTITLE0=Light of the Northern Sky
TTITLE1=Tranquility Dream
TTITLE2=The Soft Light of Love
TTITLE3=Distant Peaks
TTITLE4=Autumn Park
TTITLE5=The Snow Tree
TTITLE6=Flight of the Sunbird
TTITLE7=Sweet Rain Surrender
TTITLE8=Arayna's Awakening
TTITLE9=Towards the Blue Horizon
EXTD=
EXTT0=
EXTT1=
EXTT2=
EXTT3=
EXTT4=
EXTT5=
EXTT6=
EXTT7=
EXTT8=
EXTT9=
PLAYORDER=
